<svg width="32" height="32" viewBox="0 0 32 32" fill="none" xmlns="http://www.w3.org/2000/svg">
<rect width="32" height="32" rx="5" fill="white"/>
<path d="M25.3333 28H9.33333C7.91885 28 6.56229 27.4381 5.5621 26.4379C4.5619 25.4377 4 24.0812 4 22.6667V6.66667C4 5.95942 4.28095 5.28115 4.78105 4.78105C5.28115 4.28095 5.95942 4 6.66667 4H20C20.7072 4 21.3855 4.28095 21.8856 4.78105C22.3857 5.28115 22.6667 5.95942 22.6667 6.66667V24C22.6667 26.2093 23.124 28 25.3333 28Z" stroke="black" stroke-width="2.66667" stroke-linecap="round" stroke-linejoin="round"/>
<path d="M28 13.3333C28 12.626 27.719 11.9478 27.2189 11.4477C26.7188 10.9476 26.0405 10.6666 25.3333 10.6666H22.6666V24.6666C22.6666 26.5066 23.4933 28 25.3333 28C27.1733 28 28 26.5066 28 24.6666V13.3333Z" stroke="black" stroke-width="2.66667" stroke-linecap="round" stroke-linejoin="round"/>
<path d="M17.3334 14.6667H9.33337M17.3334 9.33337H9.33337M13.3334 20H9.33337" stroke="black" stroke-width="2.66667" stroke-linecap="round"/>
</svg>
